<svg xmlns="http://www.w3.org/2000/svg" width="60" height="60" viewBox="0 0 60 60" fill="none">
  <path d="M59.5 29.9954C59.5 46.2918 46.2937 59.5 30 59.5C13.7064 59.5 0.5 46.2826 0.5 29.9954C0.5 13.7083 13.7062 0.5 30 0.5C46.2939 0.5 59.5 13.6992 59.5 29.9954Z" fill="#39B54A" stroke="#DBDD3B"/>
  <path d="M23.2482 18.6102C24.7857 17.4616 26.9716 16.8965 29.815 16.8965C32.6585 16.8965 34.8629 17.4431 36.4097 18.5362C37.9564 19.6292 38.7345 21.2411 38.7345 23.3717C38.7345 24.7798 38.3918 26.0211 37.6971 27.0957C37.0117 28.1795 36.0484 29.2726 34.8351 30.3935L28.9444 35.6181V37.8784H27.9719V29.6894C27.9719 29.2448 28.1108 28.8835 28.3979 28.5964L30.8154 26.1415C31.5656 25.3912 32.0843 24.6779 32.3714 24.0202C32.6585 23.3532 32.7974 22.4917 32.7974 21.4264C32.7974 18.9067 31.6304 17.6468 29.2871 17.6468C28.1664 17.6468 27.3513 17.9433 26.8326 18.5454C26.3139 19.1475 26.0546 19.7126 26.0546 20.2592C26.0546 20.8057 26.1287 21.2874 26.2862 21.7043H27.5366C27.7403 22.2508 27.8515 22.9085 27.8515 23.6774C27.8515 24.4463 27.5273 25.104 26.879 25.6691C26.2306 26.2249 25.3692 26.5121 24.3041 26.5121C23.2389 26.5121 22.4146 26.1693 21.8311 25.4745C21.2476 24.789 20.9512 23.9183 20.9512 22.8808C20.9512 21.1948 21.7199 19.7774 23.2482 18.6288V18.6102ZM28.3794 45.0114C27.4069 45.0114 26.6752 44.7335 26.1935 44.1684C25.7119 43.6033 25.4711 42.9085 25.4711 42.0656C25.4711 41.2226 25.7304 40.5186 26.2491 39.9627C26.7678 39.4069 27.481 39.1198 28.3979 39.1198C29.3149 39.1198 30.0373 39.3606 30.5838 39.8423C31.1303 40.324 31.3988 41.028 31.3988 41.9636C31.3988 42.8993 31.1395 43.6404 30.6208 44.1869C30.1021 44.7335 29.3519 45.0021 28.3794 45.0021V45.0114Z" fill="#171B60"/>
</svg>